# xmcd CD database file
#
# Track frame offsets:
#	150
#	17629
#	32977
#	62455
#	83393
#	106327
#	124314
#	148347
#	160372
#	177053
#	204621
#	226118
#	240372
#	267868
#
# Disc length: 4440 seconds
#
# Revision: 1
# Processed by: cddbd v1.5.1PL2 Copyright (c) Steve Scherf et al.
# Submitted via: CDex 1.51
#
DISCID=b211560e
DTITLE=Paolo Fresu 5et - P.A.R.T.E.
DYEAR=2005
DGENRE=Jazz
TTITLE0=T.R.E.A.P. (#1)
TTITLE1=O.F.T. 20th
TTITLE2=Some Other Place
TTITLE3=Yara
TTITLE4=Free Dance
TTITLE5=Children's Play Song
TTITLE6=Night Talk
TTITLE7=Après midi
TTITLE8=Cromdim Walk
TTITLE9=Reveries
TTITLE10=T.R.E.A.P. (#2)
TTITLE11=From Mingus To Duke
TTITLE12=Arianna
TTITLE13=Dati
EXTD=YEAR: 2005
EXTT0=
EXTT1=
EXTT2=
EXTT3=
EXTT4=
EXTT5=
EXTT6=
EXTT7=
EXTT8=
EXTT9=
EXTT10=
EXTT11=
EXTT12=
EXTT13=
PLAYORDER=
